<?xml version="1.0" encoding="utf-8"?>
<!-- Generator: Adobe Illustrator 21.0.2, SVG Export Plug-In . SVG Version: 6.00 Build 0)  -->
<svg version="1.1" id="Capa_1" xmlns="http://www.w3.org/2000/svg" xmlns:xlink="http://www.w3.org/1999/xlink" x="0px" y="0px"
	 viewBox="0 0 60 60" style="enable-background:new 0 0 60 60;" xml:space="preserve" class="icon-status-svg">
<g>
	<path d="M59,0H1C0.4,0,0,0.4,0,1v58c0,0.6,0.4,1,1,1h58c0.6,0,1-0.4,1-1V1C60,0.4,59.6,0,59,0z M60,60H0V0h60V60z"/>
	<path d="M6,12h3v4c0,0.6,0.4,1,1,1h12c0.6,0,1-0.4,1-1v-4h31c0.6,0,1-0.4,1-1s-0.4-1-1-1H23V6c0-0.6-0.4-1-1-1H10C9.4,5,9,5.4,9,6
		v4H6c-0.6,0-1,0.4-1,1S5.4,12,6,12z M11,7h10v8H11V7z"/>
	<path d="M6,31h17v4c0,0.6,0.4,1,1,1h12c0.6,0,1-0.4,1-1v-4h17c0.6,0,1-0.4,1-1s-0.4-1-1-1H37v-4c0-0.6-0.4-1-1-1H24
		c-0.6,0-1,0.4-1,1v4H6c-0.6,0-1,0.4-1,1S5.4,31,6,31z M25,26h10v8H25V26z"/>
	<path d="M6,50h31v4c0,0.6,0.4,1,1,1h12c0.6,0,1-0.4,1-1v-4h3c0.6,0,1-0.4,1-1s-0.4-1-1-1h-3v-4c0-0.6-0.4-1-1-1H38
		c-0.6,0-1,0.4-1,1v4H6c-0.6,0-1,0.4-1,1S5.4,50,6,50z M39,45h10v8H39V45z"/>
</g>
</svg>
